<svg
          width="173"
          height="35"
          viewBox="0 0 173 35"
          fill="none"
          xmlns="http://www.w3.org/2000/svg"
          className="mx-auto"
        >
          <path
            d="M25.336 11.928C25.336 13.7413 24.8667 15.4053 23.928 16.92C22.9893 18.4347 21.624 19.672 19.832 20.632C18.04 21.592 15.9067 22.1573 13.432 22.328L12.056 30.04C11.5227 33.0053 10.072 34.488 7.704 34.488C6.40267 34.488 5.19733 34.104 4.088 33.336C3 32.568 2.12533 31.3947 1.464 29.816C0.802667 28.2373 0.472 26.296 0.472 23.992C0.472 19.6613 1.16533 15.992 2.552 12.984C3.96 9.95467 5.83733 7.69333 8.184 6.2C10.552 4.68533 13.1547 3.928 15.992 3.928C17.9973 3.928 19.6933 4.28 21.08 4.984C22.488 5.688 23.544 6.648 24.248 7.864C24.9733 9.05866 25.336 10.4133 25.336 11.928ZM14.008 19.032C18.3813 18.4773 20.568 16.2053 20.568 12.216C20.568 10.808 20.0987 9.66667 19.16 8.792C18.2427 7.896 16.8133 7.448 14.872 7.448C12.6747 7.448 10.7547 8.14133 9.112 9.528C7.49067 10.9147 6.232 12.8453 5.336 15.32C4.46133 17.7733 4.024 20.5787 4.024 23.736C4.024 25.0587 4.152 26.232 4.408 27.256C4.68533 28.28 5.02667 29.08 5.432 29.656C5.85867 30.2107 6.264 30.488 6.648 30.488C7.18133 30.488 7.58667 29.752 7.864 28.28L8.92 22.232C8.088 22.104 7.72533 22.0507 7.832 22.072C7.192 21.9653 6.776 21.7733 6.584 21.496C6.392 21.1973 6.296 20.824 6.296 20.376C6.296 19.9067 6.424 19.5333 6.68 19.256C6.95733 18.9787 7.33067 18.84 7.8 18.84C8.01333 18.84 8.17333 18.8507 8.28 18.872C8.792 18.9573 9.18667 19.0107 9.464 19.032C9.74133 17.368 10.136 15.1387 10.648 12.344C10.776 11.6187 11.064 11.1067 11.512 10.808C11.9813 10.488 12.5253 10.328 13.144 10.328C13.848 10.328 14.3493 10.4667 14.648 10.744C14.968 11 15.128 11.416 15.128 11.992C15.128 12.3333 15.1067 12.6107 15.064 12.824L14.008 19.032ZM38.414 23.864C38.6913 23.864 38.9047 23.992 39.054 24.248C39.2247 24.504 39.31 24.856 39.31 25.304C39.31 26.1573 39.1073 26.8187 38.702 27.288C37.7847 28.4187 36.782 29.3467 35.694 30.072C34.6273 30.7973 33.4113 31.16 32.046 31.16C30.1687 31.16 28.7713 30.3067 27.854 28.6C26.958 26.8933 26.51 24.6853 26.51 21.976C26.51 19.3733 26.8407 16.408 27.502 13.08C28.1847 9.752 29.1767 6.89333 30.478 4.504C31.8007 2.11466 33.3687 0.919998 35.182 0.919998C36.206 0.919998 37.006 1.4 37.582 2.36C38.1793 3.29867 38.478 4.65333 38.478 6.424C38.478 8.96267 37.774 11.9067 36.366 15.256C34.958 18.6053 33.0487 21.9227 30.638 25.208C30.7873 26.0827 31.0327 26.712 31.374 27.096C31.7153 27.4587 32.1633 27.64 32.718 27.64C33.5927 27.64 34.3607 27.3947 35.022 26.904C35.6833 26.392 36.526 25.528 37.55 24.312C37.806 24.0133 38.094 23.864 38.414 23.864ZM34.478 4.088C33.9873 4.088 33.4327 4.97333 32.814 6.744C32.1953 8.51467 31.6513 10.712 31.182 13.336C30.7127 15.96 30.4567 18.4773 30.414 20.888C31.9287 18.392 33.134 15.896 34.03 13.4C34.926 10.8827 35.374 8.58933 35.374 6.52C35.374 4.89867 35.0753 4.088 34.478 4.088ZM40.347 31.16C39.0243 31.16 37.9683 30.68 37.179 29.72C36.3897 28.76 35.995 27.5013 35.995 25.944C35.995 24.2373 36.3897 22.6267 37.179 21.112C37.9683 19.576 39.0137 18.3493 40.315 17.432C41.6377 16.4933 43.035 16.024 44.507 16.024C44.9763 16.024 45.2857 16.12 45.435 16.312C45.6057 16.4827 45.7443 16.8027 45.851 17.272C46.299 17.1867 46.7683 17.144 47.259 17.144C48.3043 17.144 48.827 17.5173 48.827 18.264C48.827 18.712 48.667 19.7787 48.347 21.464C47.8563 23.9173 47.611 25.624 47.611 26.584C47.611 26.904 47.6857 27.16 47.835 27.352C48.0057 27.544 48.219 27.64 48.475 27.64C48.8803 27.64 49.371 27.384 49.947 26.872C50.523 26.3387 51.3017 25.4853 52.283 24.312C52.539 24.0133 52.827 23.864 53.147 23.864C53.4243 23.864 53.6377 23.992 53.787 24.248C53.9577 24.504 54.043 24.856 54.043 25.304C54.043 26.1573 53.8403 26.8187 53.435 27.288C52.5603 28.376 51.6323 29.2933 50.651 30.04C49.6697 30.7867 48.7203 31.16 47.803 31.16C47.099 31.16 46.4483 30.9253 45.851 30.456C45.275 29.9653 44.8377 29.304 44.539 28.472C43.4297 30.264 42.0323 31.16 40.347 31.16ZM41.499 27.928C41.9683 27.928 42.4163 27.6507 42.843 27.096C43.2697 26.5413 43.579 25.8053 43.771 24.888L44.955 19C44.059 19.0213 43.227 19.3627 42.459 20.024C41.7123 20.664 41.115 21.5173 40.667 22.584C40.219 23.6507 39.995 24.7813 39.995 25.976C39.995 26.6373 40.123 27.128 40.379 27.448C40.6563 27.768 41.0297 27.928 41.499 27.928ZM65.7143 23.864C65.9916 23.864 66.2049 23.992 66.3542 24.248C66.5249 24.504 66.6103 24.856 66.6103 25.304C66.6103 26.1573 66.4076 26.8187 66.0023 27.288C65.0849 28.4187 64.0823 29.3467 62.9943 30.072C61.9063 30.7973 60.6583 31.16 59.2503 31.16C54.8983 31.16 52.7223 28.0987 52.7223 21.976C52.7223 21.0373 52.7543 20.088 52.8183 19.128H51.5703C50.9303 19.128 50.4929 19.0107 50.2583 18.776C50.0449 18.5413 49.9383 18.168 49.9383 17.656C49.9383 16.4613 50.4183 15.864 51.3783 15.864H53.2023C53.5649 13.5173 54.1196 11.3733 54.8663 9.432C55.6129 7.49067 56.5089 5.944 57.5543 4.792C58.6209 3.64 59.7623 3.064 60.9783 3.064C61.8743 3.064 62.5783 3.45867 63.0903 4.248C63.6023 5.03733 63.8583 6.02933 63.8583 7.224C63.8583 10.5307 62.4716 13.4107 59.6983 15.864H63.2823C63.6236 15.864 63.8689 15.9387 64.0183 16.088C64.1676 16.2373 64.2423 16.5147 64.2423 16.92C64.2423 18.392 63.0369 19.128 60.6263 19.128H56.7223C56.6796 20.1947 56.6583 21.0267 56.6583 21.624C56.6583 23.8427 56.9143 25.4 57.4263 26.296C57.9596 27.192 58.7916 27.64 59.9223 27.64C60.8396 27.64 61.6503 27.3627 62.3543 26.808C63.0583 26.2533 63.8903 25.4213 64.8503 24.312C65.1063 24.0133 65.3943 23.864 65.7143 23.864ZM60.1143 6.136C59.7943 6.136 59.4316 6.54133 59.0263 7.352C58.6423 8.14133 58.2689 9.25067 57.9062 10.68C57.5649 12.088 57.2769 13.656 57.0423 15.384C58.3009 14.296 59.2396 13.08 59.8583 11.736C60.4983 10.3707 60.8183 9.13333 60.8183 8.024C60.8183 6.76533 60.5836 6.136 60.1143 6.136ZM78.2768 23.864C78.5541 23.864 78.7674 23.992 78.9167 24.248C79.0874 24.504 79.1728 24.856 79.1728 25.304C79.1728 26.1573 78.9701 26.8187 78.5648 27.288C77.7754 28.248 76.6554 29.1333 75.2048 29.944C73.7754 30.7547 72.2394 31.16 70.5968 31.16C68.3568 31.16 66.6181 30.552 65.3808 29.336C64.1434 28.12 63.5247 26.456 63.5247 24.344C63.5247 22.872 63.8341 21.5067 64.4528 20.248C65.0714 18.968 65.9248 17.9547 67.0128 17.208C68.1221 16.4613 69.3701 16.088 70.7568 16.088C71.9941 16.088 72.9861 16.4613 73.7328 17.208C74.4794 17.9333 74.8528 18.9253 74.8528 20.184C74.8528 21.656 74.3194 22.9253 73.2528 23.992C72.2074 25.0373 70.4261 25.8693 67.9088 26.488C68.4421 27.4693 69.4554 27.96 70.9488 27.96C71.9088 27.96 72.9968 27.6293 74.2128 26.968C75.4501 26.2853 76.5168 25.4 77.4128 24.312C77.6688 24.0133 77.9568 23.864 78.2768 23.864ZM70.2128 19.224C69.4234 19.224 68.7514 19.6827 68.1968 20.6C67.6634 21.5173 67.3968 22.6267 67.3968 23.928V23.992C68.6554 23.6933 69.6474 23.2453 70.3728 22.648C71.0981 22.0507 71.4608 21.3573 71.4608 20.568C71.4608 20.1627 71.3434 19.8427 71.1088 19.608C70.8954 19.352 70.5968 19.224 70.2128 19.224ZM101.367 11.928C101.367 13.7413 100.898 15.4053 99.9593 16.92C99.0206 18.4347 97.6553 19.672 95.8633 20.632C94.0713 21.592 91.9379 22.1573 89.4633 22.328L88.0873 30.04C87.5539 33.0053 86.1033 34.488 83.7353 34.488C82.4339 34.488 81.2286 34.104 80.1193 33.336C79.0313 32.568 78.1566 31.3947 77.4953 29.816C76.8339 28.2373 76.5033 26.296 76.5033 23.992C76.5033 19.6613 77.1966 15.992 78.5833 12.984C79.9913 9.95467 81.8686 7.69333 84.2153 6.2C86.5833 4.68533 89.1859 3.928 92.0233 3.928C94.0286 3.928 95.7246 4.28 97.1113 4.984C98.5193 5.688 99.5753 6.648 100.279 7.864C101.005 9.05866 101.367 10.4133 101.367 11.928ZM90.0393 19.032C94.4126 18.4773 96.5993 16.2053 96.5993 12.216C96.5993 10.808 96.1299 9.66667 95.1913 8.792C94.2739 7.896 92.8446 7.448 90.9033 7.448C88.7059 7.448 86.7859 8.14133 85.1433 9.528C83.5219 10.9147 82.2633 12.8453 81.3673 15.32C80.4926 17.7733 80.0553 20.5787 80.0553 23.736C80.0553 25.0587 80.1833 26.232 80.4393 27.256C80.7166 28.28 81.0579 29.08 81.4633 29.656C81.8899 30.2107 82.2953 30.488 82.6793 30.488C83.2126 30.488 83.6179 29.752 83.8953 28.28L84.9513 22.232C84.1193 22.104 83.7566 22.0507 83.8633 22.072C83.2233 21.9653 82.8073 21.7733 82.6153 21.496C82.4233 21.1973 82.3273 20.824 82.3273 20.376C82.3273 19.9067 82.4553 19.5333 82.7113 19.256C82.9886 18.9787 83.3619 18.84 83.8313 18.84C84.0446 18.84 84.2046 18.8507 84.3113 18.872C84.8233 18.9573 85.2179 19.0107 85.4953 19.032C85.7726 17.368 86.1673 15.1387 86.6793 12.344C86.8073 11.6187 87.0953 11.1067 87.5433 10.808C88.0126 10.488 88.5566 10.328 89.1753 10.328C89.8793 10.328 90.3806 10.4667 90.6793 10.744C90.9993 11 91.1593 11.416 91.1593 11.992C91.1593 12.3333 91.1379 12.6107 91.0953 12.824L90.0393 19.032ZM103.535 31.16C102.212 31.16 101.156 30.68 100.367 29.72C99.5772 28.76 99.1825 27.5013 99.1825 25.944C99.1825 24.2373 99.5772 22.6267 100.367 21.112C101.156 19.576 102.201 18.3493 103.503 17.432C104.825 16.4933 106.223 16.024 107.695 16.024C108.164 16.024 108.473 16.12 108.623 16.312C108.793 16.4827 108.932 16.8027 109.039 17.272C109.487 17.1867 109.956 17.144 110.447 17.144C111.492 17.144 112.015 17.5173 112.015 18.264C112.015 18.712 111.855 19.7787 111.535 21.464C111.044 23.9173 110.799 25.624 110.799 26.584C110.799 26.904 110.873 27.16 111.023 27.352C111.193 27.544 111.407 27.64 111.663 27.64C112.068 27.64 112.559 27.384 113.135 26.872C113.711 26.3387 114.489 25.4853 115.471 24.312C115.727 24.0133 116.015 23.864 116.335 23.864C116.612 23.864 116.825 23.992 116.975 24.248C117.145 24.504 117.231 24.856 117.231 25.304C117.231 26.1573 117.028 26.8187 116.623 27.288C115.748 28.376 114.82 29.2933 113.839 30.04C112.857 30.7867 111.908 31.16 110.991 31.16C110.287 31.16 109.636 30.9253 109.039 30.456C108.463 29.9653 108.025 29.304 107.727 28.472C106.617 30.264 105.22 31.16 103.535 31.16ZM104.687 27.928C105.156 27.928 105.604 27.6507 106.031 27.096C106.457 26.5413 106.767 25.8053 106.959 24.888L108.143 19C107.247 19.0213 106.415 19.3627 105.647 20.024C104.9 20.664 104.303 21.5173 103.855 22.584C103.407 23.6507 103.183 24.7813 103.183 25.976C103.183 26.6373 103.311 27.128 103.567 27.448C103.844 27.768 104.217 27.928 104.687 27.928ZM126.758 23.864C127.035 23.864 127.248 23.992 127.398 24.248C127.568 24.504 127.654 24.856 127.654 25.304C127.654 26.1573 127.451 26.8187 127.046 27.288C126.128 28.4187 125.126 29.3467 124.038 30.072C122.971 30.7973 121.755 31.16 120.39 31.16C118.512 31.16 117.115 30.3067 116.198 28.6C115.302 26.8933 114.854 24.6853 114.854 21.976C114.854 19.3733 115.184 16.408 115.846 13.08C116.528 9.752 117.52 6.89333 118.822 4.504C120.144 2.11466 121.712 0.919998 123.526 0.919998C124.55 0.919998 125.35 1.4 125.926 2.36C126.523 3.29867 126.822 4.65333 126.822 6.424C126.822 8.96267 126.118 11.9067 124.71 15.256C123.302 18.6053 121.392 21.9227 118.982 25.208C119.131 26.0827 119.376 26.712 119.718 27.096C120.059 27.4587 120.507 27.64 121.062 27.64C121.936 27.64 122.704 27.3947 123.366 26.904C124.027 26.392 124.87 25.528 125.894 24.312C126.15 24.0133 126.438 23.864 126.758 23.864ZM122.822 4.088C122.331 4.088 121.776 4.97333 121.158 6.744C120.539 8.51467 119.995 10.712 119.526 13.336C119.056 15.96 118.8 18.4773 118.758 20.888C120.272 18.392 121.478 15.896 122.374 13.4C123.27 10.8827 123.718 8.58933 123.718 6.52C123.718 4.89867 123.419 4.088 122.822 4.088ZM139.339 23.864C139.617 23.864 139.83 23.992 139.979 24.248C140.15 24.504 140.235 24.856 140.235 25.304C140.235 26.1573 140.033 26.8187 139.627 27.288C138.838 28.248 137.718 29.1333 136.267 29.944C134.838 30.7547 133.302 31.16 131.659 31.16C129.419 31.16 127.681 30.552 126.443 29.336C125.206 28.12 124.587 26.456 124.587 24.344C124.587 22.872 124.897 21.5067 125.515 20.248C126.134 18.968 126.987 17.9547 128.075 17.208C129.185 16.4613 130.433 16.088 131.819 16.088C133.057 16.088 134.049 16.4613 134.795 17.208C135.542 17.9333 135.915 18.9253 135.915 20.184C135.915 21.656 135.382 22.9253 134.315 23.992C133.27 25.0373 131.489 25.8693 128.971 26.488C129.505 27.4693 130.518 27.96 132.011 27.96C132.971 27.96 134.059 27.6293 135.275 26.968C136.513 26.2853 137.579 25.4 138.475 24.312C138.731 24.0133 139.019 23.864 139.339 23.864ZM131.275 19.224C130.486 19.224 129.814 19.6827 129.259 20.6C128.726 21.5173 128.459 22.6267 128.459 23.928V23.992C129.718 23.6933 130.71 23.2453 131.435 22.648C132.161 22.0507 132.523 21.3573 132.523 20.568C132.523 20.1627 132.406 19.8427 132.171 19.608C131.958 19.352 131.659 19.224 131.275 19.224ZM161.918 23.864C162.195 23.864 162.408 23.992 162.558 24.248C162.728 24.504 162.814 24.856 162.814 25.304C162.814 26.1573 162.611 26.8187 162.206 27.288C161.288 28.4187 160.286 29.3467 159.198 30.072C158.11 30.7973 156.862 31.16 155.454 31.16C152.851 31.16 151.038 30.072 150.014 27.896C149.459 28.792 148.723 29.56 147.806 30.2C146.888 30.84 145.907 31.16 144.862 31.16C142.835 31.16 141.342 30.3387 140.382 28.696C139.443 27.032 138.974 24.792 138.974 21.976C138.974 20.9307 139.027 19.768 139.134 18.488H137.822C137.182 18.488 136.744 18.3707 136.51 18.136C136.296 17.9013 136.19 17.528 136.19 17.016C136.19 15.8213 136.67 15.224 137.63 15.224H139.582C139.987 12.9627 140.552 10.9147 141.278 9.08C142.003 7.24533 142.878 5.784 143.902 4.696C144.926 3.608 146.035 3.064 147.23 3.064C148.126 3.064 148.83 3.45867 149.342 4.248C149.854 5.03733 150.11 6.02933 150.11 7.224C150.11 10.232 148.947 12.8987 146.622 15.224H149.534C149.939 12.9627 150.504 10.9147 151.23 9.08C151.955 7.24533 152.83 5.784 153.854 4.696C154.878 3.608 155.987 3.064 157.182 3.064C158.078 3.064 158.782 3.45867 159.294 4.248C159.806 5.03733 160.062 6.02933 160.062 7.224C160.062 10.232 158.899 12.8987 156.574 15.224H159.486C159.827 15.224 160.072 15.2987 160.222 15.448C160.371 15.5973 160.446 15.8747 160.446 16.28C160.446 17.752 159.24 18.488 156.83 18.488H152.958C152.894 19.512 152.862 20.5573 152.862 21.624C152.862 23.8427 153.118 25.4 153.63 26.296C154.163 27.192 154.995 27.64 156.126 27.64C157.043 27.64 157.854 27.3627 158.558 26.808C159.262 26.2533 160.094 25.4213 161.054 24.312C161.31 24.0133 161.598 23.864 161.918 23.864ZM146.366 6.136C146.046 6.136 145.683 6.54133 145.278 7.352C144.894 8.14133 144.52 9.25067 144.158 10.68C143.816 12.088 143.528 13.656 143.294 15.384C144.552 14.296 145.491 13.08 146.11 11.736C146.75 10.3707 147.07 9.13333 147.07 8.024C147.07 6.76533 146.835 6.136 146.366 6.136ZM156.318 6.136C155.998 6.136 155.635 6.54133 155.23 7.352C154.846 8.14133 154.472 9.25067 154.11 10.68C153.768 12.088 153.48 13.656 153.246 15.384C154.504 14.296 155.443 13.08 156.062 11.736C156.702 10.3707 157.022 9.13333 157.022 8.024C157.022 6.76533 156.787 6.136 156.318 6.136ZM145.534 27.64C146.174 27.64 146.814 27.3413 147.454 26.744C148.094 26.1467 148.638 25.4107 149.086 24.536C148.979 23.8747 148.926 23.0213 148.926 21.976C148.926 20.9307 148.979 19.768 149.086 18.488H143.006C142.942 19.512 142.91 20.5573 142.91 21.624C142.91 23.7787 143.134 25.3253 143.582 26.264C144.051 27.1813 144.702 27.64 145.534 27.64ZM171.68 24.824C171.957 24.824 172.17 24.952 172.32 25.208C172.49 25.464 172.576 25.816 172.576 26.264C172.576 27.032 172.394 27.6933 172.032 28.248C171.434 29.1653 170.645 29.88 169.664 30.392C168.704 30.904 167.552 31.16 166.208 31.16C164.16 31.16 162.57 30.552 161.44 29.336C160.309 28.0987 159.743 26.4347 159.743 24.344C159.743 22.872 160.053 21.5067 160.672 20.248C161.29 18.968 162.144 17.9547 163.232 17.208C164.341 16.4613 165.589 16.088 166.976 16.088C168.213 16.088 169.205 16.4613 169.952 17.208C170.698 17.9333 171.072 18.9253 171.072 20.184C171.072 21.656 170.538 22.9253 169.472 23.992C168.426 25.0373 166.634 25.8693 164.096 26.488C164.608 27.4693 165.472 27.96 166.688 27.96C167.562 27.96 168.277 27.7573 168.832 27.352C169.408 26.9467 170.069 26.264 170.816 25.304C171.072 24.984 171.36 24.824 171.68 24.824ZM166.432 19.224C165.642 19.224 164.97 19.6827 164.416 20.6C163.882 21.5173 163.616 22.6267 163.616 23.928V23.992C164.874 23.6933 165.866 23.2453 166.592 22.648C167.317 22.0507 167.68 21.3573 167.68 20.568C167.68 20.1627 167.562 19.8427 167.328 19.608C167.114 19.352 166.816 19.224 166.432 19.224Z"
            fill="#FFFFA5"
          />
        </svg>